{"accessors":[{"bufferView":0,"componentType":5126,"count":792,"max":[44.89912414550781,19.94196319580078,7.264617919921875],"min":[-43.25250244140625,-2.1123299598693848,-83.94791412353516],"normalized":false,"type":"VEC3"},{"bufferView":1,"componentType":5123,"count":792,"max":[791],"min":[0],"normalized":false,"type":"SCALAR"},{"bufferView":2,"componentType":5126,"count":792,"max":[1.0,0.22226907312870026,1.0,1.0],"min":[-1.0,-1.0,-1.0,-1.0],"normalized":false,"type":"VEC4"},{"bufferView":3,"componentType":5126,"count":792,"max":[1.0,1.0,1.0],"min":[-1.0,-1.0,-1.0],"normalized":false,"type":"VEC3"},{"bufferView":4,"componentType":5126,"count":792,"max":[1.0,1.0],"min":[0.0,0.0],"normalized":false,"type":"VEC2"},{"bufferView":5,"componentType":5126,"count":84,"max":[51.2734375,10.449999809265137,54.004852294921875],"min":[-51.2734375,-10.449999809265137,-54.004852294921875],"normalized":false,"type":"VEC3"},{"bufferView":6,"componentType":5121,"count":84,"max":[83],"min":[0],"normalized":false,"type":"SCALAR"},{"bufferView":7,"componentType":5126,"count":84,"max":[0.0,0.0,7.630093023180962e-05,1.0],"min":[-1.0,-1.0,-1.0,-1.0],"normalized":false,"type":"VEC4"},{"bufferView":8,"componentType":5126,"count":84,"max":[1.0,1.0,1.0],"min":[-1.0,-1.0,-1.0],"normalized":false,"type":"VEC3"},{"bufferView":9,"componentType":5126,"count":84,"max":[1.0,1.0],"min":[0.0,0.0],"normalized":false,"type":"VEC2"}],"asset":{"generator":"Godot Engine v4.7.1.stable.mono.official@a13da4feb8d8aefc283c3763d33a2f170a18d541","version":"2.0"},"bufferViews":[{"buffer":0,"byteLength":9504,"byteStride":12,"target":34962},{"buffer":0,"byteLength":1584,"byteOffset":9504,"target":34963},{"buffer":0,"byteLength":12672,"byteOffset":11088,"byteStride":16,"target":34962},{"buffer":0,"byteLength":9504,"byteOffset":23760,"byteStride":12,"target":34962},{"buffer":0,"byteLength":6336,"byteOffset":33264,"byteStride":8,"target":34962},{"buffer":0,"byteLength":1008,"byteOffset":39600,"byteStride":12,"target":34962},{"buffer":0,"byteLength":84,"byteOffset":40608,"target":34963},{"buffer":0,"byteLength":1344,"byteOffset":40692,"byteStride":16,"target":34962},{"buffer":0,"byteLength":1008,"byteOffset":42036,"byteStride":12,"target":34962},{"buffer":0,"byteLength":672,"byteOffset":43044,"byteStride":8,"target":34962}],"buffers":[{"byteLength":43716,"uri":"protomap0.bin"}],"extensions":{"OMI_physics_shape":{"shapes":[{"trimesh":{"mesh":0},"type":"trimesh"},{"trimesh":{"mesh":2},"type":"trimesh"}]}},"extensionsUsed":["GODOT_single_root","OMI_physics_body","OMI_physics_shape"],"meshes":[{"primitives":[{"attributes":{"POSITION":0},"indices":1,"mode":4}]},{"primitives":[{"attributes":{"NORMAL":3,"POSITION":0,"TANGENT":2,"TEXCOORD_0":4},"indices":1,"mode":4}]},{"primitives":[{"attributes":{"POSITION":5},"indices":6,"mode":4}]},{"primitives":[{"attributes":{"NORMAL":8,"POSITION":5,"TANGENT":7,"TEXCOORD_0":9},"indices":6,"mode":4}]}],"nodes":[{"children":[1],"name":"Node3D"},{"children":[2,3,4,5],"extensions":{"OMI_physics_body":{"motion":{"type":"static"}}},"name":"StaticBody3D","translation":[0.0,2.1175661087036133,39.61945343017578]},{"extensions":{"OMI_physics_body":{"collider":{"shape":0}}},"name":"CSGBakedCollisionShape3D"},{"mesh":1,"name":"CSGBakedMeshInstance3D"},{"extensions":{"OMI_physics_body":{"collider":{"shape":1}}},"name":"CSGBakedCollisionShape3D2","translation":[1.08203125,7.640314102172852,-41.244544982910156]},{"mesh":3,"name":"CSGBakedMeshInstance3D2","translation":[1.08203125,7.640314102172852,-41.244544982910156]}],"scene":0,"scenes":[{"nodes":[0]}]}